<svg width="48" height="48" viewBox="0 0 48 48" fill="none" xmlns="http://www.w3.org/2000/svg">
<circle cx="24" cy="24" r="22.5" fill="white" stroke="#FF0000" stroke-width="3"/>
<path d="M10.126 17.4V19.74H12.646V30H15.562V17.4H10.126ZM26.3728 23.376C27.3088 22.8 27.8488 21.918 27.8488 20.784C27.8488 18.57 25.8688 17.184 22.9708 17.184C20.1088 17.184 18.1288 18.57 18.1288 20.784C18.1288 21.918 18.6508 22.8 19.5868 23.376C18.3808 23.988 17.6788 24.996 17.6788 26.346C17.6788 28.722 19.7848 30.216 22.9708 30.216C26.1748 30.216 28.2988 28.722 28.2988 26.346C28.2988 24.996 27.5968 23.988 26.3728 23.376ZM22.9708 19.326C24.1588 19.326 24.9508 19.92 24.9508 20.91C24.9508 21.864 24.1768 22.458 22.9708 22.458C21.7828 22.458 21.0268 21.864 21.0268 20.91C21.0268 19.92 21.8008 19.326 22.9708 19.326ZM22.9708 28.074C21.5308 28.074 20.6308 27.372 20.6308 26.256C20.6308 25.14 21.5308 24.456 22.9708 24.456C24.4288 24.456 25.3468 25.14 25.3468 26.256C25.3468 27.372 24.4288 28.074 22.9708 28.074ZM38.6156 22.602H35.4836V19.542H33.1616V22.602H30.0476V24.798H33.1616V27.858H35.4836V24.798H38.6156V22.602Z" fill="black"/>
</svg>
