<svg width="13" height="16" viewBox="0 0 13 16" fill="none" xmlns="http://www.w3.org/2000/svg">
<path d="M2.60717 14.5541C1.81464 13.7196 1.02214 12.8517 0.517791 11.8169C0.0134725 10.7153 -0.130633 9.44684 0.121543 8.24512C0.373719 7.04341 0.950074 5.90844 1.77864 4.9404C1.7066 5.77494 2.03081 6.64283 2.6432 7.27708C2.28296 5.67479 2.85935 3.93897 4.01209 2.6705C5.16483 1.40203 6.74989 0.567467 8.40695 0C7.57842 0.801145 7.47035 2.06961 7.79456 3.13783C8.11877 4.20601 8.80323 5.14069 9.41562 6.10873C10.028 7.07677 10.6044 8.0782 10.6404 9.17977C10.9646 8.6123 11.3249 8.04481 11.541 7.41059C11.7572 6.77634 11.8652 6.10873 11.6851 5.47448C12.3336 6.20887 12.6938 6.94323 12.8739 7.87791C13.054 8.81259 13.018 9.78063 12.91 10.7153C12.7658 11.7501 12.4777 12.8183 11.8653 13.6862C11.1448 14.721 9.80688 15.5 8.73123 15.856C7.65558 16.2119 4.30027 15.9227 2.60717 14.5541Z" fill="url(#paint0_linear)"/>
<path d="M5.31309 15.5165C8.22751 16.6706 11.1064 13.1723 9.50702 10.4675C9.50702 10.4314 9.47147 10.4314 9.47147 10.3953C9.61365 11.874 9.25822 12.9559 8.58291 13.5691C8.93834 12.7035 8.68953 11.6937 8.26303 10.8281C7.83652 9.99865 7.23232 9.24129 6.77026 8.44785C6.30821 7.61837 5.95281 6.68066 6.16606 5.74298C5.31305 6.39215 4.70885 7.3659 4.46004 8.41177C4.21124 9.45764 4.35342 10.6117 4.81548 11.5855C4.28235 11.1888 3.8914 10.5396 3.85584 9.85438C3.28716 10.5396 2.93176 11.4412 2.96728 12.3429C2.96731 13.7494 4.06909 15.0116 5.31309 15.5165Z" fill="url(#paint1_linear)"/>
<defs>
<linearGradient id="paint0_linear" x1="6.5" y1="0" x2="6.5" y2="16" gradientUnits="userSpaceOnUse">
<stop stop-color="#FFA800"/>
<stop offset="1" stop-color="#FF0000"/>
</linearGradient>
<linearGradient id="paint1_linear" x1="6.46484" y1="5.74298" x2="6.46484" y2="15.743" gradientUnits="userSpaceOnUse">
<stop stop-color="#EBFF01"/>
<stop offset="1" stop-color="#FF2D01"/>
</linearGradient>
</defs>
</svg>
