<svg xmlns="http://www.w3.org/2000/svg" width="32.362" height="24.651" viewBox="0 0 32.362 24.651">
  <g id="_022-email-1" data-name="022-email-1" transform="translate(0 -61)">
    <g id="Сгруппировать_181" data-name="Сгруппировать 181" transform="translate(1.626 61)">
      <g id="Сгруппировать_180" data-name="Сгруппировать 180" transform="translate(0 0)">
        <path id="Контур_144" data-name="Контур 144" d="M53.613,61H26.94a2.811,2.811,0,0,0-1.219.285L40.213,75.777l3.248-3.122h0l11.37-11.369A2.811,2.811,0,0,0,53.613,61Z" transform="translate(-25.721 -61)" fill="#fff"/>
      </g>
    </g>
    <g id="Сгруппировать_183" data-name="Сгруппировать 183" transform="translate(21.377 62.626)">
      <g id="Сгруппировать_182" data-name="Сгруппировать 182">
        <path id="Контур_145" data-name="Контур 145" d="M348.913,86.728l-10.7,10.7,10.7,10.7a2.811,2.811,0,0,0,.285-1.219V87.946A2.811,2.811,0,0,0,348.913,86.728Z" transform="translate(-338.213 -86.728)" fill="#fff"/>
      </g>
    </g>
    <g id="Сгруппировать_185" data-name="Сгруппировать 185" transform="translate(0 62.626)">
      <g id="Сгруппировать_184" data-name="Сгруппировать 184" transform="translate(0 0)">
        <path id="Контур_146" data-name="Контур 146" d="M.285,86.721A2.811,2.811,0,0,0,0,87.94V106.9a2.812,2.812,0,0,0,.285,1.218l10.7-10.7Z" transform="translate(0 -86.721)" fill="#fff"/>
      </g>
    </g>
    <g id="Сгруппировать_187" data-name="Сгруппировать 187" transform="translate(1.625 74.666)">
      <g id="Сгруппировать_186" data-name="Сгруппировать 186">
        <path id="Контур_147" data-name="Контур 147" d="M44.125,277.211l-3.249,3.122a.948.948,0,0,1-1.341,0l-3.122-3.122-10.7,10.7a2.811,2.811,0,0,0,1.219.285H53.606a2.811,2.811,0,0,0,1.219-.285Z" transform="translate(-25.714 -277.211)" fill="#fff"/>
      </g>
    </g>
  </g>
</svg>
