<svg xmlns="http://www.w3.org/2000/svg" xmlns:xlink="http://www.w3.org/1999/xlink" width="28" height="28" viewBox="0 0 28 28">
  <defs>
    <clipPath id="clip-path">
      <rect id="Прямоугольник_104" data-name="Прямоугольник 104" width="28" height="28" transform="translate(582 2228.75)" fill="#fff" stroke="#707070" stroke-width="1"/>
    </clipPath>
  </defs>
  <g id="Группа_масок_35" data-name="Группа масок 35" transform="translate(-582 -2228.75)" clip-path="url(#clip-path)">
    <g id="Page-1" transform="translate(582.002 2228.751)">
      <g id="_003---Call" data-name="003---Call" transform="translate(-0.483)">
        <path id="Shape" d="M12.076,16.4A11.3,11.3,0,0,1,8.665,9.989a.96.96,0,0,1,.276-.8L11.1,7.024a.965.965,0,0,0,.136-1.195L7.8.483A.965.965,0,0,0,6.545.131l-5.528,2.6a.96.96,0,0,0-.531.959c.29,2.752,1.489,9.516,8.136,16.163s13.41,7.847,16.163,8.136a.96.96,0,0,0,.959-.531l2.6-5.528A.965.965,0,0,0,28,20.685l-5.347-3.442a.965.965,0,0,0-1.195.135L19.3,19.541a.96.96,0,0,1-.8.276A11.3,11.3,0,0,1,12.076,16.4Z" fill="#fff"/>
        <path id="Shape-2" data-name="Shape" d="M22.688,14.965A.965.965,0,0,1,21.723,14a7.249,7.249,0,0,0-7.241-7.241.965.965,0,1,1,0-1.931A9.182,9.182,0,0,1,23.654,14,.965.965,0,0,1,22.688,14.965Z" fill="#fff"/>
        <path id="Shape-3" data-name="Shape" d="M27.516,14.965A.965.965,0,0,1,26.55,14,12.082,12.082,0,0,0,14.482,1.931a.965.965,0,1,1,0-1.931,14.015,14.015,0,0,1,14,14,.965.965,0,0,1-.965.965Z" fill="#fff"/>
      </g>
    </g>
  </g>
</svg>
