<svg width="32" height="32" viewBox="0 0 32 32" fill="none" xmlns="http://www.w3.org/2000/svg">
<path d="M16 32C24.8366 32 32 24.8366 32 16C32 7.16344 24.8366 0 16 0C7.16344 0 0 7.16344 0 16C0 24.8366 7.16344 32 16 32Z" fill="#474747"/>
<path d="M6.32144 15.6533L21.7481 9.7053C22.4641 9.44664 23.0894 9.87997 22.8574 10.9626L22.8588 10.9613L20.2321 23.336C20.0374 24.2133 19.5161 24.4266 18.7868 24.0133L14.7868 21.0653L12.8574 22.924C12.6441 23.1373 12.4641 23.3173 12.0508 23.3173L12.3348 19.2466L19.7481 12.5493C20.0708 12.2653 19.6761 12.1053 19.2508 12.388L10.0894 18.156L6.14011 16.924C5.28277 16.652 5.26411 16.0666 6.32144 15.6533Z" fill="#9E9E9E"/>
</svg>
