<svg width="179" height="106" viewBox="0 0 179 106" fill="none" xmlns="http://www.w3.org/2000/svg">
<g opacity="0.2">
<path d="M146.061 139.575C136.322 183.27 90.0288 208.481 46.7821 196.893C3.53541 185.305 -22.1164 140.857 -10.5302 97.6164C-10.5302 97.6164 -1.26001 59.9901 12.9193 45.7372C12.9193 45.7372 10.946 64.1523 22.1509 74.2611C33.3557 84.3699 35.5384 90.5774 35.5384 90.5774C35.5384 90.5774 22.4069 30.2204 97.1492 -1.26094C97.1492 -1.26094 84.4856 21.689 94.877 34.8336C105.268 47.9782 105.522 65.8057 100.961 77.3128C100.961 77.3128 116.46 71.3981 119.063 48.4208C119.063 48.4208 134.058 64.2761 118.203 120.12C118.203 120.12 138.731 124.143 140.93 88.3217C140.93 88.3217 153.753 105.079 146.061 139.575Z" fill="white"/>
<path d="M17.0151 143.617C17.0151 143.617 8.45026 188.618 50.473 198.268C50.473 198.268 85.7092 207.171 98.113 169.918C98.113 169.918 73.7558 180.113 80.6139 155.288C81.831 150.87 84.2226 146.886 87.2536 143.447C90.7282 139.494 95.5939 132.087 96.8074 120.655C96.8074 120.655 86.0742 140.895 77.3001 127.252C72.0539 119.092 70.8148 112.865 80.4093 88.5803C80.4093 88.5803 70.0313 93.638 63.2385 109.95C61.9517 113.039 58.9462 115.241 55.6045 115.097C52.3157 114.955 48.8391 112.633 48.0861 103.92C48.0861 103.92 39.0256 111.66 42.8753 137.398C42.8753 137.398 42.6808 149.15 32.4446 151.244C22.2084 153.339 17.0151 143.617 17.0151 143.617Z" fill="#C8C8C8"/>
</g>
</svg>
