<svg width="165" height="106" viewBox="0 0 165 106" fill="none" xmlns="http://www.w3.org/2000/svg">
<g opacity="0.2">
<path d="M202.097 65.8823C226.108 103.666 211.2 154.227 172.427 176.613C133.653 198.999 84.0842 185.708 61.7013 146.94C61.7013 146.94 41.6505 113.779 41.5984 93.6742C41.5984 93.6742 53.2246 108.091 68.2956 107.316C83.3666 106.541 89.2994 109.387 89.2994 109.387C89.2994 109.387 37.3351 75.9935 67.9253 0.881962C67.9253 0.881962 75.1988 26.0646 91.8412 28.0114C108.484 29.9582 121.269 42.3848 126.181 53.7463C126.181 53.7463 132.958 38.605 118.551 20.5167C118.551 20.5167 140.366 21.1251 168.642 71.8238C168.642 71.8238 186.002 60.1534 162.227 33.2689C162.227 33.2689 183.144 36.0505 202.097 65.8823Z" fill="white"/>
<path d="M113.706 159.989C113.706 159.989 139.471 197.866 176.009 174.975C176.009 174.975 207.219 156.355 189.649 121.242C189.649 121.242 179.635 145.674 166.93 123.271C164.667 119.286 163.541 114.778 163.252 110.203C162.914 104.951 161.117 96.2731 153.891 87.3311C153.891 87.3311 160.613 109.232 144.762 105.79C135.283 103.73 130.003 100.202 119.616 76.2462C119.616 76.2462 115.854 87.1608 122.585 103.498C123.859 106.592 123.291 110.275 120.827 112.536C118.4 114.761 114.3 115.577 107.607 109.949C107.607 109.949 106.673 121.829 127.594 137.306C127.594 137.306 135.767 145.753 130.01 154.473C124.253 163.192 113.706 159.989 113.706 159.989Z" fill="#C8C8C8"/>
</g>
</svg>
